# xmcd
#
# Track frame offsets: 
#        150
#        17473
#        38098
#        60608
#        75867
#        91507
#        111460
#        125383
#        148204
#        166259
#        194172
#        220535
#        237806
#        270621
#        290413
#
# Disc length: 4046 seconds
#
# Revision: 7
# Processed by: cddbd v1.5.1PL0 Copyright (c) Steve Scherf et al.
# Submitted via: ExactAudioCopy v0.95a5
#
DISCID=c70fcc0f
DTITLE=Bonnie Pink - Bonnie's Kitchen #1
DYEAR=1999
DGENRE=Pop
TTITLE0=Heaven's Kitchen
TTITLE1=It's gonna rain!
TTITLE2=Do You Crash?
TTITLE3=kanawanai koto
TTITLE4=He
TTITLE5=tuki to inu(Full Length Version)
TTITLE6=Your Butterfly
TTITLE7=kinngyo
TTITLE8=Lie Lie Lie
TTITLE9=Surprise!
TTITLE10=orange
TTITLE11=senaka
TTITLE12=Maze Of Love
TTITLE13=tatoeba no hanashi
TTITLE14=One Night With Chocolate
EXTD=YEAR: 1999
EXTT0=
EXTT1=
EXTT2=
EXTT3=
EXTT4=
EXTT5=
EXTT6=
EXTT7=
EXTT8=
EXTT9=
EXTT10=
EXTT11=
EXTT12=
EXTT13=
EXTT14=
PLAYORDER=
